<mxfile host="65bd71144e">
    <diagram id="VDXFUBo6pc3ZmlPbq-25" name="Page-1">
        <mxGraphModel dx="319" dy="726" grid="1" gridSize="10" guides="1" tooltips="1" connect="1" arrows="1" fold="1" page="1" pageScale="1" pageWidth="850" pageHeight="1100" math="0" shadow="0">
            <root>
                <mxCell id="0"/>
                <mxCell id="1" parent="0"/>
                <mxCell id="11" value="" style="edgeStyle=none;html=1;strokeColor=#FFFFFF;strokeWidth=3;endArrow=ERzeroToMany;endFill=0;endSize=5;targetPerimeterSpacing=0;elbow=vertical;rounded=1;startArrow=ERmandOne;startFill=0;" parent="1" edge="1">
                    <mxGeometry relative="1" as="geometry">
                        <mxPoint x="359.74" y="210" as="sourcePoint"/>
                        <mxPoint x="359.74" y="290" as="targetPoint"/>
                    </mxGeometry>
                </mxCell>
                <mxCell id="244" value="writes" style="edgeLabel;html=1;align=center;verticalAlign=middle;resizable=0;points=[];fontSize=9;" vertex="1" connectable="0" parent="11">
                    <mxGeometry x="-0.2622" y="-3" relative="1" as="geometry">
                        <mxPoint x="1" y="6" as="offset"/>
                    </mxGeometry>
                </mxCell>
                <mxCell id="31" value="" style="strokeWidth=2;html=1;shape=mxgraph.lean_mapping.manufacturing_process;fontSize=12;verticalAlign=middle;html=1;align=center;whiteSpace=wrap;rounded=1;strokeColor=default;fontFamily=Helvetica;fontColor=default;fillColor=default;gradientColor=none;horizontal=1;" parent="1" vertex="1">
                    <mxGeometry x="300" y="90" width="130" height="120" as="geometry"/>
                </mxCell>
                <mxCell id="41" value="" style="text;fontSize=12;spacingLeft=2;verticalAlign=top;align=center;spacingTop=-5;resizeWidth=1;rounded=0;strokeColor=default;fontFamily=Helvetica;fontColor=default;fillColor=default;gradientColor=none;html=1;" parent="1" vertex="1">
                    <mxGeometry x="300" y="185.72" width="130" height="24.28" as="geometry"/>
                </mxCell>
                <mxCell id="47" value="" style="text;fontSize=12;spacingLeft=2;verticalAlign=top;align=center;spacingTop=-5;resizeWidth=1;rounded=0;strokeColor=default;fontFamily=Helvetica;fontColor=default;fillColor=default;gradientColor=none;html=1;" parent="1" vertex="1">
                    <mxGeometry x="300" y="161.44000000000003" width="130" height="24.28" as="geometry"/>
                </mxCell>
                <mxCell id="48" value="" style="text;fontSize=12;spacingLeft=2;verticalAlign=top;align=center;spacingTop=-5;resizeWidth=1;rounded=0;strokeColor=default;fontFamily=Helvetica;fontColor=default;fillColor=default;gradientColor=none;html=1;" parent="1" vertex="1">
                    <mxGeometry x="300" y="137.16" width="130" height="24.28" as="geometry"/>
                </mxCell>
                <mxCell id="49" value="" style="text;fontSize=12;spacingLeft=2;verticalAlign=top;align=center;spacingTop=-5;resizeWidth=1;rounded=0;strokeColor=default;fontFamily=Helvetica;fontColor=default;fillColor=default;gradientColor=none;html=1;" parent="1" vertex="1">
                    <mxGeometry x="300" y="110" width="130" height="27.16" as="geometry"/>
                </mxCell>
                <mxCell id="51" value="" style="text;fontSize=12;spacingLeft=2;verticalAlign=top;align=center;spacingTop=-5;resizeWidth=1;rounded=0;strokeColor=default;fontFamily=Helvetica;fontColor=default;fillColor=none;gradientColor=none;html=1;rotation=90;" parent="1" vertex="1">
                    <mxGeometry x="365" y="146" width="103" height="27.16" as="geometry"/>
                </mxCell>
                <mxCell id="52" value="" style="text;fontSize=12;spacingLeft=2;verticalAlign=top;align=center;spacingTop=-5;resizeWidth=1;rounded=0;strokeColor=default;fontFamily=Helvetica;fontColor=default;fillColor=none;gradientColor=none;html=1;rotation=90;" parent="1" vertex="1">
                    <mxGeometry x="265" y="143" width="103" height="33.16" as="geometry"/>
                </mxCell>
                <mxCell id="56" value="" style="strokeWidth=2;html=1;shape=mxgraph.lean_mapping.manufacturing_process;fontSize=12;verticalAlign=middle;html=1;align=center;whiteSpace=wrap;rounded=1;strokeColor=default;fontFamily=Helvetica;fontColor=default;fillColor=default;gradientColor=none;horizontal=1;" parent="1" vertex="1">
                    <mxGeometry x="300" y="290" width="130" height="96" as="geometry"/>
                </mxCell>
                <mxCell id="58" value="" style="text;fontSize=12;spacingLeft=2;verticalAlign=top;align=center;spacingTop=-5;resizeWidth=1;rounded=0;strokeColor=default;fontFamily=Helvetica;fontColor=default;fillColor=default;gradientColor=none;html=1;" parent="1" vertex="1">
                    <mxGeometry x="300" y="361.44000000000005" width="130" height="24.28" as="geometry"/>
                </mxCell>
                <mxCell id="59" value="" style="text;fontSize=12;spacingLeft=2;verticalAlign=top;align=center;spacingTop=-5;resizeWidth=1;rounded=0;strokeColor=default;fontFamily=Helvetica;fontColor=default;fillColor=default;gradientColor=none;html=1;" parent="1" vertex="1">
                    <mxGeometry x="300" y="337.15999999999997" width="130" height="24.28" as="geometry"/>
                </mxCell>
                <mxCell id="60" value="" style="text;fontSize=12;spacingLeft=2;verticalAlign=top;align=center;spacingTop=-5;resizeWidth=1;rounded=0;strokeColor=default;fontFamily=Helvetica;fontColor=default;fillColor=default;gradientColor=none;html=1;" parent="1" vertex="1">
                    <mxGeometry x="300" y="310" width="130" height="27.16" as="geometry"/>
                </mxCell>
                <mxCell id="61" value="" style="text;fontSize=12;spacingLeft=2;verticalAlign=top;align=center;spacingTop=-5;resizeWidth=1;rounded=0;strokeColor=default;fontFamily=Helvetica;fontColor=default;fillColor=none;gradientColor=none;html=1;rotation=90;" parent="1" vertex="1">
                    <mxGeometry x="379" y="334" width="75" height="27.16" as="geometry"/>
                </mxCell>
                <mxCell id="62" value="" style="text;fontSize=12;spacingLeft=2;verticalAlign=top;align=center;spacingTop=-5;resizeWidth=1;rounded=0;strokeColor=default;fontFamily=Helvetica;fontColor=default;fillColor=none;gradientColor=none;html=1;rotation=90;" parent="1" vertex="1">
                    <mxGeometry x="279.63" y="328.38" width="78" height="37.41" as="geometry"/>
                </mxCell>
                <mxCell id="63" value="" style="strokeWidth=2;html=1;shape=mxgraph.lean_mapping.manufacturing_process;fontSize=12;verticalAlign=middle;html=1;align=center;whiteSpace=wrap;rounded=1;strokeColor=default;fontFamily=Helvetica;fontColor=default;fillColor=default;gradientColor=none;horizontal=1;" parent="1" vertex="1">
                    <mxGeometry x="68" y="278" width="130" height="120" as="geometry"/>
                </mxCell>
                <mxCell id="64" value="" style="text;fontSize=12;spacingLeft=2;verticalAlign=top;align=center;spacingTop=-5;resizeWidth=1;rounded=0;strokeColor=default;fontFamily=Helvetica;fontColor=default;fillColor=default;gradientColor=none;html=1;" parent="1" vertex="1">
                    <mxGeometry x="68" y="373.72" width="130" height="24.28" as="geometry"/>
                </mxCell>
                <mxCell id="65" value="" style="text;fontSize=12;spacingLeft=2;verticalAlign=top;align=center;spacingTop=-5;resizeWidth=1;rounded=0;strokeColor=default;fontFamily=Helvetica;fontColor=default;fillColor=default;gradientColor=none;html=1;" parent="1" vertex="1">
                    <mxGeometry x="68" y="349.44000000000005" width="130" height="24.28" as="geometry"/>
                </mxCell>
                <mxCell id="66" value="" style="text;fontSize=12;spacingLeft=2;verticalAlign=top;align=center;spacingTop=-5;resizeWidth=1;rounded=0;strokeColor=default;fontFamily=Helvetica;fontColor=default;fillColor=default;gradientColor=none;html=1;" parent="1" vertex="1">
                    <mxGeometry x="68" y="325.15999999999997" width="130" height="24.28" as="geometry"/>
                </mxCell>
                <mxCell id="67" value="" style="text;fontSize=12;spacingLeft=2;verticalAlign=top;align=center;spacingTop=-5;resizeWidth=1;rounded=0;strokeColor=default;fontFamily=Helvetica;fontColor=default;fillColor=default;gradientColor=none;html=1;" parent="1" vertex="1">
                    <mxGeometry x="68" y="298" width="130" height="27.16" as="geometry"/>
                </mxCell>
                <mxCell id="68" value="" style="text;fontSize=12;spacingLeft=2;verticalAlign=top;align=center;spacingTop=-5;resizeWidth=1;rounded=0;strokeColor=default;fontFamily=Helvetica;fontColor=default;fillColor=none;gradientColor=none;html=1;rotation=90;" parent="1" vertex="1">
                    <mxGeometry x="133" y="334" width="103" height="27.16" as="geometry"/>
                </mxCell>
                <mxCell id="69" value="" style="text;fontSize=12;spacingLeft=2;verticalAlign=top;align=center;spacingTop=-5;resizeWidth=1;rounded=0;strokeColor=default;fontFamily=Helvetica;fontColor=default;fillColor=none;gradientColor=none;html=1;rotation=90;" parent="1" vertex="1">
                    <mxGeometry x="32" y="332" width="103" height="31.16" as="geometry"/>
                </mxCell>
                <mxCell id="70" value="" style="edgeStyle=orthogonalEdgeStyle;html=1;strokeColor=#FFFFFF;strokeWidth=3;endArrow=ERone;endFill=0;endSize=5;targetPerimeterSpacing=0;elbow=vertical;rounded=1;startArrow=ERmandOne;startFill=0;curved=1;" parent="1" source="31" edge="1">
                    <mxGeometry relative="1" as="geometry">
                        <mxPoint x="120" y="197.9999999999999" as="sourcePoint"/>
                        <mxPoint x="120" y="277.9999999999999" as="targetPoint"/>
                    </mxGeometry>
                </mxCell>
                <mxCell id="233" value="becomes" style="edgeLabel;html=1;align=center;verticalAlign=middle;resizable=0;points=[];fontSize=9;" vertex="1" connectable="0" parent="70">
                    <mxGeometry x="-0.1482" y="28" relative="1" as="geometry">
                        <mxPoint as="offset"/>
                    </mxGeometry>
                </mxCell>
                <mxCell id="73" value="" style="strokeWidth=2;html=1;shape=mxgraph.lean_mapping.manufacturing_process;fontSize=12;verticalAlign=middle;html=1;align=center;whiteSpace=wrap;rounded=1;strokeColor=default;fontFamily=Helvetica;fontColor=default;fillColor=default;gradientColor=none;horizontal=1;" parent="1" vertex="1">
                    <mxGeometry x="488" y="278" width="130" height="120" as="geometry"/>
                </mxCell>
                <mxCell id="74" value="" style="text;fontSize=12;spacingLeft=2;verticalAlign=top;align=center;spacingTop=-5;resizeWidth=1;rounded=0;strokeColor=default;fontFamily=Helvetica;fontColor=default;fillColor=default;gradientColor=none;html=1;" parent="1" vertex="1">
                    <mxGeometry x="488" y="373.72" width="130" height="24.28" as="geometry"/>
                </mxCell>
                <mxCell id="75" value="" style="text;fontSize=12;spacingLeft=2;verticalAlign=top;align=center;spacingTop=-5;resizeWidth=1;rounded=0;strokeColor=default;fontFamily=Helvetica;fontColor=default;fillColor=default;gradientColor=none;html=1;" parent="1" vertex="1">
                    <mxGeometry x="488" y="349.44000000000005" width="130" height="24.28" as="geometry"/>
                </mxCell>
                <mxCell id="76" value="" style="text;fontSize=12;spacingLeft=2;verticalAlign=top;align=center;spacingTop=-5;resizeWidth=1;rounded=0;strokeColor=default;fontFamily=Helvetica;fontColor=default;fillColor=default;gradientColor=none;html=1;" parent="1" vertex="1">
                    <mxGeometry x="488" y="325.15999999999997" width="130" height="24.28" as="geometry"/>
                </mxCell>
                <mxCell id="77" value="" style="text;fontSize=12;spacingLeft=2;verticalAlign=top;align=center;spacingTop=-5;resizeWidth=1;rounded=0;strokeColor=default;fontFamily=Helvetica;fontColor=default;fillColor=default;gradientColor=none;html=1;" parent="1" vertex="1">
                    <mxGeometry x="488" y="298" width="130" height="27.16" as="geometry"/>
                </mxCell>
                <mxCell id="80" value="" style="text;fontSize=12;spacingLeft=2;verticalAlign=top;align=center;spacingTop=-5;resizeWidth=1;rounded=0;strokeColor=default;fontFamily=Helvetica;fontColor=default;fillColor=default;gradientColor=none;html=1;fillStyle=auto;" parent="1" vertex="1">
                    <mxGeometry x="488" y="398" width="130" height="24.28" as="geometry"/>
                </mxCell>
                <mxCell id="81" value="" style="text;fontSize=12;spacingLeft=2;verticalAlign=top;align=center;spacingTop=-5;resizeWidth=1;rounded=0;strokeColor=default;fontFamily=Helvetica;fontColor=default;fillColor=default;gradientColor=none;html=1;" parent="1" vertex="1">
                    <mxGeometry x="488" y="422.28" width="130" height="24.28" as="geometry"/>
                </mxCell>
                <mxCell id="82" value="" style="text;fontSize=12;spacingLeft=2;verticalAlign=top;align=center;spacingTop=-5;resizeWidth=1;rounded=0;strokeColor=default;fontFamily=Helvetica;fontColor=default;fillColor=default;gradientColor=none;html=1;" parent="1" vertex="1">
                    <mxGeometry x="488" y="446.55999999999995" width="130" height="24.28" as="geometry"/>
                </mxCell>
                <mxCell id="83" value="" style="text;fontSize=12;spacingLeft=2;verticalAlign=top;align=center;spacingTop=-5;resizeWidth=1;rounded=0;strokeColor=default;fontFamily=Helvetica;fontColor=default;fillColor=none;gradientColor=none;html=1;rotation=90;" parent="1" vertex="1">
                    <mxGeometry x="517" y="371" width="173.5" height="27" as="geometry"/>
                </mxCell>
                <mxCell id="84" value="" style="text;fontSize=12;spacingLeft=2;verticalAlign=top;align=center;spacingTop=-5;resizeWidth=1;rounded=0;strokeColor=default;fontFamily=Helvetica;fontColor=default;fillColor=none;gradientColor=none;html=1;rotation=90;" parent="1" vertex="1">
                    <mxGeometry x="420" y="365" width="173" height="37.16" as="geometry"/>
                </mxCell>
                <mxCell id="85" value="" style="edgeStyle=orthogonalEdgeStyle;html=1;strokeColor=#FFFFFF;strokeWidth=3;endArrow=ERzeroToMany;endFill=0;endSize=5;targetPerimeterSpacing=0;elbow=vertical;rounded=1;startArrow=ERmandOne;startFill=0;curved=1;entryX=0.46;entryY=-0.01;entryDx=0;entryDy=0;entryPerimeter=0;" parent="1" source="31" target="73" edge="1">
                    <mxGeometry relative="1" as="geometry">
                        <mxPoint x="660" y="161.4400000000001" as="sourcePoint"/>
                        <mxPoint x="480" y="289.44" as="targetPoint"/>
                    </mxGeometry>
                </mxCell>
                <mxCell id="231" value="creates" style="edgeLabel;html=1;align=center;verticalAlign=middle;resizable=0;points=[];fontSize=9;" vertex="1" connectable="0" parent="85">
                    <mxGeometry x="0.274" y="-15" relative="1" as="geometry">
                        <mxPoint x="-6" y="1" as="offset"/>
                    </mxGeometry>
                </mxCell>
                <mxCell id="87" value="" style="strokeWidth=2;html=1;shape=mxgraph.lean_mapping.manufacturing_process;fontSize=12;verticalAlign=middle;html=1;align=center;whiteSpace=wrap;rounded=1;strokeColor=default;fontFamily=Helvetica;fontColor=default;fillColor=default;gradientColor=none;horizontal=1;" parent="1" vertex="1">
                    <mxGeometry x="300" y="530" width="130" height="120" as="geometry"/>
                </mxCell>
                <mxCell id="88" value="" style="text;fontSize=12;spacingLeft=2;verticalAlign=top;align=center;spacingTop=-5;resizeWidth=1;rounded=0;strokeColor=default;fontFamily=Helvetica;fontColor=default;fillColor=default;gradientColor=none;html=1;" parent="1" vertex="1">
                    <mxGeometry x="300" y="625.72" width="130" height="24.28" as="geometry"/>
                </mxCell>
                <mxCell id="89" value="" style="text;fontSize=12;spacingLeft=2;verticalAlign=top;align=center;spacingTop=-5;resizeWidth=1;rounded=0;strokeColor=default;fontFamily=Helvetica;fontColor=default;fillColor=default;gradientColor=none;html=1;" parent="1" vertex="1">
                    <mxGeometry x="300" y="601.44" width="130" height="24.28" as="geometry"/>
                </mxCell>
                <mxCell id="90" value="" style="text;fontSize=12;spacingLeft=2;verticalAlign=top;align=center;spacingTop=-5;resizeWidth=1;rounded=0;strokeColor=default;fontFamily=Helvetica;fontColor=default;fillColor=default;gradientColor=none;html=1;" parent="1" vertex="1">
                    <mxGeometry x="300" y="577.16" width="130" height="24.28" as="geometry"/>
                </mxCell>
                <mxCell id="91" value="" style="text;fontSize=12;spacingLeft=2;verticalAlign=top;align=center;spacingTop=-5;resizeWidth=1;rounded=0;strokeColor=default;fontFamily=Helvetica;fontColor=default;fillColor=default;gradientColor=none;html=1;" parent="1" vertex="1">
                    <mxGeometry x="300" y="550" width="130" height="27.16" as="geometry"/>
                </mxCell>
                <mxCell id="94" value="" style="text;fontSize=12;spacingLeft=2;verticalAlign=top;align=center;spacingTop=-5;resizeWidth=1;rounded=0;strokeColor=default;fontFamily=Helvetica;fontColor=default;fillColor=default;gradientColor=none;html=1;" parent="1" vertex="1">
                    <mxGeometry x="299" y="650" width="131" height="24.28" as="geometry"/>
                </mxCell>
                <mxCell id="95" value="" style="text;fontSize=12;spacingLeft=2;verticalAlign=top;align=center;spacingTop=-5;resizeWidth=1;rounded=0;strokeColor=default;fontFamily=Helvetica;fontColor=default;fillColor=none;gradientColor=none;html=1;rotation=90;" parent="1" vertex="1">
                    <mxGeometry x="354" y="598" width="126" height="27" as="geometry"/>
                </mxCell>
                <mxCell id="96" value="" style="text;fontSize=12;spacingLeft=2;verticalAlign=top;align=center;spacingTop=-5;resizeWidth=1;rounded=0;strokeColor=default;fontFamily=Helvetica;fontColor=default;fillColor=none;gradientColor=none;html=1;rotation=90;" parent="1" vertex="1">
                    <mxGeometry x="251.5" y="597" width="126" height="29" as="geometry"/>
                </mxCell>
                <mxCell id="97" value="" style="edgeStyle=orthogonalEdgeStyle;html=1;strokeColor=#FFFFFF;strokeWidth=3;endArrow=ERzeroToMany;endFill=0;endSize=5;targetPerimeterSpacing=0;elbow=vertical;rounded=1;startArrow=ERmandOne;startFill=0;curved=1;exitX=0.5;exitY=1;exitDx=0;exitDy=0;entryX=0;entryY=0.75;entryDx=0;entryDy=0;" parent="1" source="64" target="90" edge="1">
                    <mxGeometry relative="1" as="geometry">
                        <mxPoint x="260" y="480.0000000000001" as="sourcePoint"/>
                        <mxPoint x="80" y="608" as="targetPoint"/>
                    </mxGeometry>
                </mxCell>
                <mxCell id="234" value="makes" style="edgeLabel;html=1;align=center;verticalAlign=middle;resizable=0;points=[];fontSize=9;" vertex="1" connectable="0" parent="97">
                    <mxGeometry x="0.3315" y="45" relative="1" as="geometry">
                        <mxPoint as="offset"/>
                    </mxGeometry>
                </mxCell>
                <mxCell id="99" value="" style="edgeStyle=orthogonalEdgeStyle;html=1;strokeColor=#FFFFFF;strokeWidth=3;endArrow=ERzeroToMany;endFill=0;endSize=5;targetPerimeterSpacing=0;rounded=1;startArrow=ERmandOne;startFill=0;exitX=0.449;exitY=0.999;exitDx=0;exitDy=0;entryX=0.591;entryY=-0.027;entryDx=0;entryDy=0;exitPerimeter=0;entryPerimeter=0;curved=1;" parent="1" source="82" target="95" edge="1">
                    <mxGeometry relative="1" as="geometry">
                        <mxPoint x="488" y="559.9999999999998" as="sourcePoint"/>
                        <mxPoint x="655" y="757.3699999999999" as="targetPoint"/>
                        <Array as="points">
                            <mxPoint x="546" y="580"/>
                            <mxPoint x="500" y="580"/>
                            <mxPoint x="500" y="623"/>
                        </Array>
                    </mxGeometry>
                </mxCell>
                <mxCell id="235" value="receives" style="edgeLabel;html=1;align=center;verticalAlign=middle;resizable=0;points=[];fontSize=9;" vertex="1" connectable="0" parent="99">
                    <mxGeometry x="-0.2886" y="-11" relative="1" as="geometry">
                        <mxPoint as="offset"/>
                    </mxGeometry>
                </mxCell>
                <mxCell id="107" value="" style="strokeWidth=2;html=1;shape=mxgraph.lean_mapping.manufacturing_process;fontSize=12;verticalAlign=middle;html=1;align=center;whiteSpace=wrap;rounded=1;strokeColor=default;fontFamily=Helvetica;fontColor=default;fillColor=default;gradientColor=none;horizontal=1;" parent="1" vertex="1">
                    <mxGeometry x="675.5" y="185.72" width="130" height="74.28" as="geometry"/>
                </mxCell>
                <mxCell id="109" value="" style="text;fontSize=12;spacingLeft=2;verticalAlign=top;align=center;spacingTop=-5;resizeWidth=1;rounded=0;strokeColor=default;fontFamily=Helvetica;fontColor=default;fillColor=default;gradientColor=none;html=1;" parent="1" vertex="1">
                    <mxGeometry x="675.5" y="232.87999999999997" width="130" height="24.28" as="geometry"/>
                </mxCell>
                <mxCell id="110" value="" style="text;fontSize=12;spacingLeft=2;verticalAlign=top;align=center;spacingTop=-5;resizeWidth=1;rounded=0;strokeColor=default;fontFamily=Helvetica;fontColor=default;fillColor=default;gradientColor=none;html=1;" parent="1" vertex="1">
                    <mxGeometry x="675.5" y="205.72" width="130" height="27.16" as="geometry"/>
                </mxCell>
                <mxCell id="111" value="" style="text;fontSize=12;spacingLeft=2;verticalAlign=top;align=center;spacingTop=-5;resizeWidth=1;rounded=0;strokeColor=default;fontFamily=Helvetica;fontColor=default;fillColor=none;gradientColor=none;html=1;rotation=90;" parent="1" vertex="1">
                    <mxGeometry x="765" y="218" width="54" height="27.16" as="geometry"/>
                </mxCell>
                <mxCell id="112" value="" style="text;fontSize=12;spacingLeft=2;verticalAlign=top;align=center;spacingTop=-5;resizeWidth=1;rounded=0;strokeColor=default;fontFamily=Helvetica;fontColor=default;fillColor=none;gradientColor=none;html=1;rotation=90;" parent="1" vertex="1">
                    <mxGeometry x="664.5" y="214.5" width="54" height="34" as="geometry"/>
                </mxCell>
                <mxCell id="113" value="" style="strokeWidth=2;html=1;shape=mxgraph.lean_mapping.manufacturing_process;fontSize=12;verticalAlign=middle;html=1;align=center;whiteSpace=wrap;rounded=1;strokeColor=default;fontFamily=Helvetica;fontColor=default;fillColor=default;gradientColor=none;horizontal=1;" parent="1" vertex="1">
                    <mxGeometry x="716" y="350.56" width="130" height="96" as="geometry"/>
                </mxCell>
                <mxCell id="114" value="" style="text;fontSize=12;spacingLeft=2;verticalAlign=top;align=center;spacingTop=-5;resizeWidth=1;rounded=0;strokeColor=default;fontFamily=Helvetica;fontColor=default;fillColor=default;gradientColor=none;html=1;" parent="1" vertex="1">
                    <mxGeometry x="716" y="422.00000000000006" width="130" height="24.28" as="geometry"/>
                </mxCell>
                <mxCell id="115" value="" style="text;fontSize=12;spacingLeft=2;verticalAlign=top;align=center;spacingTop=-5;resizeWidth=1;rounded=0;strokeColor=default;fontFamily=Helvetica;fontColor=default;fillColor=default;gradientColor=none;html=1;" parent="1" vertex="1">
                    <mxGeometry x="716" y="397.71999999999997" width="130" height="24.28" as="geometry"/>
                </mxCell>
                <mxCell id="116" value="" style="text;fontSize=12;spacingLeft=2;verticalAlign=top;align=center;spacingTop=-5;resizeWidth=1;rounded=0;strokeColor=default;fontFamily=Helvetica;fontColor=default;fillColor=default;gradientColor=none;html=1;" parent="1" vertex="1">
                    <mxGeometry x="716" y="370.56" width="130" height="27.16" as="geometry"/>
                </mxCell>
                <mxCell id="117" value="" style="text;fontSize=12;spacingLeft=2;verticalAlign=top;align=center;spacingTop=-5;resizeWidth=1;rounded=0;strokeColor=default;fontFamily=Helvetica;fontColor=default;fillColor=none;gradientColor=none;html=1;rotation=90;" parent="1" vertex="1">
                    <mxGeometry x="795" y="394.56" width="75" height="27.16" as="geometry"/>
                </mxCell>
                <mxCell id="118" value="" style="text;fontSize=12;spacingLeft=2;verticalAlign=top;align=center;spacingTop=-5;resizeWidth=1;rounded=0;strokeColor=default;fontFamily=Helvetica;fontColor=default;fillColor=none;gradientColor=none;html=1;rotation=90;" parent="1" vertex="1">
                    <mxGeometry x="694" y="391" width="78" height="33" as="geometry"/>
                </mxCell>
                <mxCell id="120" value="" style="html=1;strokeColor=#FFFFFF;strokeWidth=3;endArrow=ERzeroToMany;endFill=0;endSize=5;targetPerimeterSpacing=0;rounded=1;startArrow=ERmandOne;startFill=0;entryX=0.25;entryY=0;entryDx=0;entryDy=0;exitX=0;exitY=1;exitDx=0;exitDy=0;edgeStyle=elbowEdgeStyle;" parent="1" source="112" target="83" edge="1">
                    <mxGeometry relative="1" as="geometry">
                        <mxPoint x="557.7" y="118.41263157894728" as="sourcePoint"/>
                        <mxPoint x="675.4999999999998" y="245.15999999999997" as="targetPoint"/>
                    </mxGeometry>
                </mxCell>
                <mxCell id="263" value="belongs_to" style="edgeLabel;html=1;align=center;verticalAlign=middle;resizable=0;points=[];fontSize=9;" vertex="1" connectable="0" parent="120">
                    <mxGeometry x="0.1846" y="2" relative="1" as="geometry">
                        <mxPoint as="offset"/>
                    </mxGeometry>
                </mxCell>
                <mxCell id="122" value="" style="html=1;strokeColor=#FFFFFF;strokeWidth=3;endArrow=ERzeroToMany;endFill=0;endSize=5;targetPerimeterSpacing=0;rounded=1;startArrow=ERmandOne;startFill=0;entryX=0.708;entryY=-0.035;entryDx=0;entryDy=0;exitX=-0.007;exitY=0.35;exitDx=0;exitDy=0;edgeStyle=elbowEdgeStyle;exitPerimeter=0;entryPerimeter=0;" parent="1" source="113" target="83" edge="1">
                    <mxGeometry relative="1" as="geometry">
                        <mxPoint x="717.25" y="325.15999999999985" as="sourcePoint"/>
                        <mxPoint x="660" y="461.7850000000002" as="targetPoint"/>
                    </mxGeometry>
                </mxCell>
                <mxCell id="262" value="belogs_to" style="edgeLabel;html=1;align=center;verticalAlign=middle;resizable=0;points=[];fontSize=9;" vertex="1" connectable="0" parent="122">
                    <mxGeometry x="-0.1755" y="-1" relative="1" as="geometry">
                        <mxPoint as="offset"/>
                    </mxGeometry>
                </mxCell>
                <mxCell id="124" value="" style="html=1;strokeColor=#FFFFFF;strokeWidth=3;endArrow=ERzeroToMany;endFill=0;endSize=5;targetPerimeterSpacing=0;rounded=1;startArrow=ERmandOne;startFill=0;entryX=0.433;entryY=-0.015;entryDx=0;entryDy=0;exitX=0.545;exitY=1.011;exitDx=0;exitDy=0;exitPerimeter=0;entryPerimeter=0;" parent="1" source="107" target="113" edge="1">
                    <mxGeometry relative="1" as="geometry">
                        <mxPoint x="764.9999999999999" y="288.72999999999996" as="sourcePoint"/>
                        <mxPoint x="668.1049999999999" y="325.1580000000002" as="targetPoint"/>
                    </mxGeometry>
                </mxCell>
                <mxCell id="261" value="cantains" style="edgeLabel;html=1;align=center;verticalAlign=middle;resizable=0;points=[];fontSize=9;" vertex="1" connectable="0" parent="124">
                    <mxGeometry x="-0.252" y="-3" relative="1" as="geometry">
                        <mxPoint as="offset"/>
                    </mxGeometry>
                </mxCell>
                <mxCell id="126" value="&lt;div style=&quot;text-align: start;&quot;&gt;&lt;span style=&quot;color: rgb(166, 173, 187); font-family: &amp;quot;trebuchet ms&amp;quot;, verdana, arial, sans-serif; font-size: 10.2px; background-color: rgb(42, 48, 60);&quot;&gt;PK&lt;/span&gt;&lt;br&gt;&lt;/div&gt;" style="text;html=1;align=center;verticalAlign=middle;resizable=0;points=[];autosize=1;strokeColor=none;fillColor=none;spacing=0;" parent="1" vertex="1">
                    <mxGeometry x="400" y="113.58" width="30" height="20" as="geometry"/>
                </mxCell>
                <mxCell id="127" value="&lt;span style=&quot;color: rgb(166, 173, 187); font-family: &amp;quot;trebuchet ms&amp;quot;, verdana, arial, sans-serif; font-size: 10.2px; text-align: start; background-color: rgb(42, 48, 60);&quot;&gt;user_id&lt;/span&gt;" style="text;html=1;align=center;verticalAlign=middle;resizable=0;points=[];autosize=1;strokeColor=none;fillColor=none;" parent="1" vertex="1">
                    <mxGeometry x="335" y="108.58" width="60" height="30" as="geometry"/>
                </mxCell>
                <mxCell id="129" value="&lt;span style=&quot;color: rgb(166, 173, 187); font-family: &amp;quot;trebuchet ms&amp;quot;, verdana, arial, sans-serif; font-size: 10.2px; text-align: start; background-color: rgb(42, 48, 60);&quot;&gt;int&lt;/span&gt;" style="text;html=1;align=center;verticalAlign=middle;resizable=0;points=[];autosize=1;strokeColor=none;fillColor=none;fontSize=10;spacing=0;" parent="1" vertex="1">
                    <mxGeometry x="300" y="113.58" width="30" height="20" as="geometry"/>
                </mxCell>
                <mxCell id="130" value="&lt;span style=&quot;color: rgb(166, 173, 187); font-family: &amp;quot;trebuchet ms&amp;quot;, verdana, arial, sans-serif; text-align: start; background-color: rgb(42, 48, 60); font-size: 10px;&quot;&gt;Users&lt;/span&gt;" style="text;html=1;align=center;verticalAlign=middle;resizable=0;points=[];autosize=1;strokeColor=none;fillColor=none;strokeWidth=1;spacingTop=-5;spacing=0;fontSize=10;" parent="1" vertex="1">
                    <mxGeometry x="344.5" y="95" width="40" height="10" as="geometry"/>
                </mxCell>
                <mxCell id="131" value="&lt;span style=&quot;color: rgb(166, 173, 187); font-family: &amp;quot;trebuchet ms&amp;quot;, verdana, arial, sans-serif; font-size: 10.2px; text-align: start; background-color: rgb(42, 48, 60);&quot;&gt;email&lt;/span&gt;" style="text;html=1;align=center;verticalAlign=middle;resizable=0;points=[];autosize=1;strokeColor=none;fillColor=none;fontSize=10;strokeWidth=1;" parent="1" vertex="1">
                    <mxGeometry x="340" y="182.86" width="50" height="30" as="geometry"/>
                </mxCell>
                <mxCell id="134" value="&lt;span style=&quot;color: rgb(166, 173, 187); font-family: &amp;quot;trebuchet ms&amp;quot;, verdana, arial, sans-serif; font-size: 10.2px; text-align: start; background-color: rgb(42, 48, 60);&quot;&gt;username&lt;/span&gt;" style="text;html=1;align=center;verticalAlign=middle;resizable=0;points=[];autosize=1;strokeColor=none;fillColor=none;fontSize=10;strokeWidth=1;" parent="1" vertex="1">
                    <mxGeometry x="330" y="133.57999999999998" width="70" height="30" as="geometry"/>
                </mxCell>
                <mxCell id="136" value="&lt;span style=&quot;color: rgb(166, 173, 187); font-family: &amp;quot;trebuchet ms&amp;quot;, verdana, arial, sans-serif; font-size: 10.2px; text-align: start; background-color: rgb(42, 48, 60);&quot;&gt;string&lt;/span&gt;" style="text;html=1;align=center;verticalAlign=middle;resizable=0;points=[];autosize=1;strokeColor=none;fillColor=none;fontSize=10;strokeWidth=1;" parent="1" vertex="1">
                    <mxGeometry x="288.5" y="182.86" width="50" height="30" as="geometry"/>
                </mxCell>
                <mxCell id="137" value="&lt;span style=&quot;color: rgb(166, 173, 187); font-family: &amp;quot;trebuchet ms&amp;quot;, verdana, arial, sans-serif; font-size: 10.2px; text-align: start; background-color: rgb(42, 48, 60);&quot;&gt;string&lt;/span&gt;" style="text;html=1;align=center;verticalAlign=middle;resizable=0;points=[];autosize=1;strokeColor=none;fillColor=none;fontSize=10;strokeWidth=1;" parent="1" vertex="1">
                    <mxGeometry x="288.5" y="158.57999999999998" width="50" height="30" as="geometry"/>
                </mxCell>
                <mxCell id="138" value="&lt;span style=&quot;color: rgb(166, 173, 187); font-family: &amp;quot;trebuchet ms&amp;quot;, verdana, arial, sans-serif; font-size: 10.2px; text-align: start; background-color: rgb(42, 48, 60);&quot;&gt;string&lt;/span&gt;" style="text;html=1;align=center;verticalAlign=middle;resizable=0;points=[];autosize=1;strokeColor=none;fillColor=none;fontSize=10;strokeWidth=1;" parent="1" vertex="1">
                    <mxGeometry x="288.5" y="134.29999999999998" width="50" height="30" as="geometry"/>
                </mxCell>
                <mxCell id="139" value="&lt;span style=&quot;color: rgb(166, 173, 187); font-family: &amp;quot;trebuchet ms&amp;quot;, verdana, arial, sans-serif; font-size: 10.2px; text-align: start; background-color: rgb(42, 48, 60);&quot;&gt;password&lt;/span&gt;" style="text;html=1;align=center;verticalAlign=middle;resizable=0;points=[];autosize=1;strokeColor=none;fillColor=none;fontSize=10;" parent="1" vertex="1">
                    <mxGeometry x="330" y="158.58" width="70" height="30" as="geometry"/>
                </mxCell>
                <mxCell id="145" value="&lt;span style=&quot;color: rgb(166, 173, 187); font-family: &amp;quot;trebuchet ms&amp;quot;, verdana, arial, sans-serif; font-size: 10.2px; text-align: start; background-color: rgb(42, 48, 60);&quot;&gt;int&lt;/span&gt;" style="text;html=1;align=center;verticalAlign=middle;resizable=0;points=[];autosize=1;strokeColor=none;fillColor=none;fontSize=10;spacing=0;" parent="1" vertex="1">
                    <mxGeometry x="66.5" y="301.58" width="30" height="20" as="geometry"/>
                </mxCell>
                <mxCell id="147" value="&lt;span style=&quot;color: rgb(166, 173, 187); font-family: &amp;quot;trebuchet ms&amp;quot;, verdana, arial, sans-serif; font-size: 10.2px; text-align: start; background-color: rgb(42, 48, 60);&quot;&gt;int&lt;/span&gt;" style="text;html=1;align=center;verticalAlign=middle;resizable=0;points=[];autosize=1;strokeColor=none;fillColor=none;fontSize=10;spacing=0;" parent="1" vertex="1">
                    <mxGeometry x="66.5" y="375.86" width="30" height="20" as="geometry"/>
                </mxCell>
                <mxCell id="148" value="&lt;span style=&quot;color: rgb(166, 173, 187); font-family: &amp;quot;trebuchet ms&amp;quot;, verdana, arial, sans-serif; font-size: 10.2px; text-align: start; background-color: rgb(42, 48, 60);&quot;&gt;string&lt;/span&gt;" style="text;html=1;align=center;verticalAlign=middle;resizable=0;points=[];autosize=1;strokeColor=none;fillColor=none;fontSize=10;strokeWidth=1;" parent="1" vertex="1">
                    <mxGeometry x="58.5" y="320.55999999999995" width="50" height="30" as="geometry"/>
                </mxCell>
                <mxCell id="149" value="&lt;span style=&quot;color: rgb(166, 173, 187); font-family: &amp;quot;trebuchet ms&amp;quot;, verdana, arial, sans-serif; font-size: 10.2px; text-align: start; background-color: rgb(42, 48, 60);&quot;&gt;string&lt;/span&gt;" style="text;html=1;align=center;verticalAlign=middle;resizable=0;points=[];autosize=1;strokeColor=none;fillColor=none;fontSize=10;strokeWidth=1;" parent="1" vertex="1">
                    <mxGeometry x="58.5" y="345.85999999999996" width="50" height="30" as="geometry"/>
                </mxCell>
                <mxCell id="154" value="&lt;p style=&quot;line-height: 100%;&quot;&gt;&lt;/p&gt;" style="text;html=1;align=center;verticalAlign=middle;resizable=0;points=[];autosize=1;strokeColor=none;fillColor=none;fontSize=9;" parent="1" vertex="1">
                    <mxGeometry x="230" y="210" width="20" height="20" as="geometry"/>
                </mxCell>
                <mxCell id="155" value="&lt;p style=&quot;line-height: 90%; font-size: 10px;&quot;&gt;&lt;/p&gt;" style="text;html=1;align=center;verticalAlign=middle;resizable=0;points=[];autosize=1;strokeColor=none;fillColor=none;fontSize=9;" parent="1" vertex="1">
                    <mxGeometry x="280" y="450" width="20" height="20" as="geometry"/>
                </mxCell>
                <mxCell id="156" value="&lt;div style=&quot;text-align: start;&quot;&gt;&lt;span style=&quot;color: rgb(166, 173, 187); font-family: &amp;quot;trebuchet ms&amp;quot;, verdana, arial, sans-serif; font-size: 10.2px; background-color: rgb(42, 48, 60);&quot;&gt;PK&lt;/span&gt;&lt;br&gt;&lt;/div&gt;" style="text;html=1;align=center;verticalAlign=middle;resizable=0;points=[];autosize=1;strokeColor=none;fillColor=none;spacing=0;" vertex="1" parent="1">
                    <mxGeometry x="168" y="301.58" width="30" height="20" as="geometry"/>
                </mxCell>
                <mxCell id="157" value="&lt;span style=&quot;color: rgb(166, 173, 187); font-family: &amp;quot;trebuchet ms&amp;quot;, verdana, arial, sans-serif; font-size: 10.2px; text-align: start; background-color: rgb(42, 48, 60);&quot;&gt;freelancer&lt;/span&gt;&lt;span style=&quot;color: rgb(166, 173, 187); font-family: &amp;quot;trebuchet ms&amp;quot;, verdana, arial, sans-serif; font-size: 10.2px; text-align: start; background-color: rgb(42, 48, 60);&quot;&gt;_id&lt;/span&gt;" style="text;html=1;align=center;verticalAlign=middle;resizable=0;points=[];autosize=1;strokeColor=none;fillColor=none;" vertex="1" parent="1">
                    <mxGeometry x="93" y="296.58" width="80" height="30" as="geometry"/>
                </mxCell>
                <mxCell id="159" value="&lt;span style=&quot;color: rgb(166, 173, 187); font-family: &amp;quot;trebuchet ms&amp;quot;, verdana, arial, sans-serif; font-size: 10.2px; text-align: start; background-color: rgb(42, 48, 60);&quot;&gt;name&lt;/span&gt;" style="text;html=1;align=center;verticalAlign=middle;resizable=0;points=[];autosize=1;strokeColor=none;fillColor=none;fontSize=10;strokeWidth=1;" vertex="1" parent="1">
                    <mxGeometry x="108" y="323" width="50" height="30" as="geometry"/>
                </mxCell>
                <mxCell id="161" value="&lt;span style=&quot;color: rgb(166, 173, 187); font-family: &amp;quot;trebuchet ms&amp;quot;, verdana, arial, sans-serif; font-size: 10.2px; text-align: start; background-color: rgb(42, 48, 60);&quot;&gt;competences&lt;/span&gt;" style="text;html=1;align=center;verticalAlign=middle;resizable=0;points=[];autosize=1;strokeColor=none;fillColor=none;fontSize=10;strokeWidth=1;" vertex="1" parent="1">
                    <mxGeometry x="96.5" y="345.86" width="80" height="30" as="geometry"/>
                </mxCell>
                <mxCell id="162" value="&lt;span style=&quot;color: rgb(166, 173, 187); font-family: &amp;quot;trebuchet ms&amp;quot;, verdana, arial, sans-serif; font-size: 10.2px; text-align: start; background-color: rgb(42, 48, 60);&quot;&gt;user_id&lt;/span&gt;" style="text;html=1;align=center;verticalAlign=middle;resizable=0;points=[];autosize=1;strokeColor=none;fillColor=none;" vertex="1" parent="1">
                    <mxGeometry x="103" y="371" width="60" height="30" as="geometry"/>
                </mxCell>
                <mxCell id="163" value="&lt;span style=&quot;color: rgb(166, 173, 187); font-family: &amp;quot;trebuchet ms&amp;quot;, verdana, arial, sans-serif; font-size: 10.2px; text-align: start; background-color: rgb(42, 48, 60);&quot;&gt;Freelancer&lt;/span&gt;" style="text;html=1;align=center;verticalAlign=middle;resizable=0;points=[];autosize=1;strokeColor=none;fillColor=none;" vertex="1" parent="1">
                    <mxGeometry x="93" y="271.58" width="70" height="30" as="geometry"/>
                </mxCell>
                <mxCell id="164" value="&lt;span style=&quot;color: rgb(166, 173, 187); font-family: &amp;quot;trebuchet ms&amp;quot;, verdana, arial, sans-serif; font-size: 10.2px; text-align: start; background-color: rgb(42, 48, 60);&quot;&gt;Offres&lt;/span&gt;" style="text;html=1;align=center;verticalAlign=middle;resizable=0;points=[];autosize=1;strokeColor=none;fillColor=none;spacing=0;" vertex="1" parent="1">
                    <mxGeometry x="340" y="528" width="50" height="20" as="geometry"/>
                </mxCell>
                <mxCell id="165" value="&lt;div style=&quot;text-align: start;&quot;&gt;&lt;span style=&quot;color: rgb(166, 173, 187); font-family: &amp;quot;trebuchet ms&amp;quot;, verdana, arial, sans-serif; font-size: 10.2px; background-color: rgb(42, 48, 60);&quot;&gt;FK&lt;/span&gt;&lt;br&gt;&lt;/div&gt;" style="text;html=1;align=center;verticalAlign=middle;resizable=0;points=[];autosize=1;strokeColor=none;fillColor=none;spacing=0;" vertex="1" parent="1">
                    <mxGeometry x="168" y="375.86" width="30" height="20" as="geometry"/>
                </mxCell>
                <mxCell id="167" value="&lt;span style=&quot;color: rgb(166, 173, 187); font-family: &amp;quot;trebuchet ms&amp;quot;, verdana, arial, sans-serif; font-size: 10.2px; text-align: start; background-color: rgb(42, 48, 60);&quot;&gt;int&lt;/span&gt;" style="text;html=1;align=center;verticalAlign=middle;resizable=0;points=[];autosize=1;strokeColor=none;fillColor=none;fontSize=10;spacing=0;" vertex="1" parent="1">
                    <mxGeometry x="298.5" y="553.5799999999999" width="30" height="20" as="geometry"/>
                </mxCell>
                <mxCell id="168" value="&lt;span style=&quot;color: rgb(166, 173, 187); font-family: &amp;quot;trebuchet ms&amp;quot;, verdana, arial, sans-serif; font-size: 10.2px; text-align: start; background-color: rgb(42, 48, 60);&quot;&gt;offre_id&lt;/span&gt;" style="text;html=1;align=center;verticalAlign=middle;resizable=0;points=[];autosize=1;strokeColor=none;fillColor=none;" vertex="1" parent="1">
                    <mxGeometry x="335" y="548" width="60" height="30" as="geometry"/>
                </mxCell>
                <mxCell id="169" value="&lt;div style=&quot;text-align: start;&quot;&gt;&lt;span style=&quot;color: rgb(166, 173, 187); font-family: &amp;quot;trebuchet ms&amp;quot;, verdana, arial, sans-serif; font-size: 10.2px; background-color: rgb(42, 48, 60);&quot;&gt;PK&lt;/span&gt;&lt;br&gt;&lt;/div&gt;" style="text;html=1;align=center;verticalAlign=middle;resizable=0;points=[];autosize=1;strokeColor=none;fillColor=none;spacing=0;" vertex="1" parent="1">
                    <mxGeometry x="400" y="553" width="30" height="20" as="geometry"/>
                </mxCell>
                <mxCell id="170" value="&lt;span style=&quot;color: rgb(166, 173, 187); font-family: &amp;quot;trebuchet ms&amp;quot;, verdana, arial, sans-serif; font-size: 10.2px; text-align: start; background-color: rgb(42, 48, 60);&quot;&gt;float&lt;/span&gt;" style="text;html=1;align=center;verticalAlign=middle;resizable=0;points=[];autosize=1;strokeColor=none;fillColor=none;fontSize=10;spacing=0;" vertex="1" parent="1">
                    <mxGeometry x="293.5" y="577.16" width="40" height="20" as="geometry"/>
                </mxCell>
                <mxCell id="171" value="&lt;span style=&quot;color: rgb(166, 173, 187); font-family: &amp;quot;trebuchet ms&amp;quot;, verdana, arial, sans-serif; font-size: 10.2px; text-align: start; background-color: rgb(42, 48, 60);&quot;&gt;montat&lt;/span&gt;" style="text;html=1;align=center;verticalAlign=middle;resizable=0;points=[];autosize=1;strokeColor=none;fillColor=none;" vertex="1" parent="1">
                    <mxGeometry x="334.5" y="572.16" width="60" height="30" as="geometry"/>
                </mxCell>
                <mxCell id="172" value="&lt;span style=&quot;color: rgb(166, 173, 187); font-family: &amp;quot;trebuchet ms&amp;quot;, verdana, arial, sans-serif; font-size: 10.2px; text-align: start; background-color: rgb(42, 48, 60);&quot;&gt;string&lt;/span&gt;" style="text;html=1;align=center;verticalAlign=middle;resizable=0;points=[];autosize=1;strokeColor=none;fillColor=none;fontSize=10;strokeWidth=1;" vertex="1" parent="1">
                    <mxGeometry x="288.5" y="596.9999999999999" width="50" height="30" as="geometry"/>
                </mxCell>
                <mxCell id="173" value="&lt;span style=&quot;color: rgb(166, 173, 187); font-family: &amp;quot;trebuchet ms&amp;quot;, verdana, arial, sans-serif; font-size: 10.2px; text-align: start; background-color: rgb(42, 48, 60);&quot;&gt;delai&lt;/span&gt;" style="text;html=1;align=center;verticalAlign=middle;resizable=0;points=[];autosize=1;strokeColor=none;fillColor=none;" vertex="1" parent="1">
                    <mxGeometry x="339.5" y="598.5799999999999" width="50" height="30" as="geometry"/>
                </mxCell>
                <mxCell id="205" value="&lt;span style=&quot;color: rgb(166, 173, 187); font-family: &amp;quot;trebuchet ms&amp;quot;, verdana, arial, sans-serif; font-size: 10.2px; text-align: start; background-color: rgb(42, 48, 60);&quot;&gt;int&lt;/span&gt;" style="text;html=1;align=center;verticalAlign=middle;resizable=0;points=[];autosize=1;strokeColor=none;fillColor=none;fontSize=10;spacing=0;" vertex="1" parent="1">
                    <mxGeometry x="300" y="648.5799999999999" width="30" height="20" as="geometry"/>
                </mxCell>
                <mxCell id="206" value="&lt;span style=&quot;color: rgb(166, 173, 187); font-family: &amp;quot;trebuchet ms&amp;quot;, verdana, arial, sans-serif; font-size: 10.2px; text-align: start; background-color: rgb(42, 48, 60);&quot;&gt;int&lt;/span&gt;" style="text;html=1;align=center;verticalAlign=middle;resizable=0;points=[];autosize=1;strokeColor=none;fillColor=none;fontSize=10;spacing=0;" vertex="1" parent="1">
                    <mxGeometry x="300" y="628.5799999999999" width="30" height="20" as="geometry"/>
                </mxCell>
                <mxCell id="207" value="&lt;span style=&quot;color: rgb(166, 173, 187); font-family: &amp;quot;trebuchet ms&amp;quot;, verdana, arial, sans-serif; font-size: 10.2px; text-align: start; background-color: rgb(42, 48, 60);&quot;&gt;freelancer&lt;/span&gt;&lt;span style=&quot;color: rgb(166, 173, 187); font-family: &amp;quot;trebuchet ms&amp;quot;, verdana, arial, sans-serif; font-size: 10.2px; text-align: start; background-color: rgb(42, 48, 60);&quot;&gt;_id&lt;/span&gt;" style="text;html=1;align=center;verticalAlign=middle;resizable=0;points=[];autosize=1;strokeColor=none;fillColor=none;" vertex="1" parent="1">
                    <mxGeometry x="325" y="620" width="80" height="30" as="geometry"/>
                </mxCell>
                <mxCell id="208" value="&lt;div style=&quot;text-align: start;&quot;&gt;&lt;span style=&quot;color: rgb(166, 173, 187); font-family: &amp;quot;trebuchet ms&amp;quot;, verdana, arial, sans-serif; font-size: 10.2px; background-color: rgb(42, 48, 60);&quot;&gt;FK&lt;/span&gt;&lt;br&gt;&lt;/div&gt;" style="text;html=1;align=center;verticalAlign=middle;resizable=0;points=[];autosize=1;strokeColor=none;fillColor=none;spacing=0;" vertex="1" parent="1">
                    <mxGeometry x="402" y="654.28" width="30" height="20" as="geometry"/>
                </mxCell>
                <mxCell id="209" value="&lt;div style=&quot;text-align: start;&quot;&gt;&lt;span style=&quot;color: rgb(166, 173, 187); font-family: &amp;quot;trebuchet ms&amp;quot;, verdana, arial, sans-serif; font-size: 10.2px; background-color: rgb(42, 48, 60);&quot;&gt;FK&lt;/span&gt;&lt;br&gt;&lt;/div&gt;" style="text;html=1;align=center;verticalAlign=middle;resizable=0;points=[];autosize=1;strokeColor=none;fillColor=none;spacing=0;" vertex="1" parent="1">
                    <mxGeometry x="402" y="625" width="30" height="20" as="geometry"/>
                </mxCell>
                <mxCell id="210" value="&lt;span style=&quot;color: rgb(166, 173, 187); font-family: &amp;quot;trebuchet ms&amp;quot;, verdana, arial, sans-serif; font-size: 10.2px; text-align: start; background-color: rgb(42, 48, 60);&quot;&gt;project_id&lt;/span&gt;" style="text;html=1;align=center;verticalAlign=middle;resizable=0;points=[];autosize=1;strokeColor=none;fillColor=none;" vertex="1" parent="1">
                    <mxGeometry x="328.5" y="647.14" width="70" height="30" as="geometry"/>
                </mxCell>
                <mxCell id="211" value="&lt;span style=&quot;color: rgb(166, 173, 187); font-family: &amp;quot;trebuchet ms&amp;quot;, verdana, arial, sans-serif; font-size: 10.2px; text-align: start; background-color: rgb(42, 48, 60);&quot;&gt;Projects&lt;/span&gt;" style="text;html=1;align=center;verticalAlign=middle;resizable=0;points=[];autosize=1;strokeColor=none;fillColor=none;spacing=0;" vertex="1" parent="1">
                    <mxGeometry x="517" y="276.58" width="60" height="20" as="geometry"/>
                </mxCell>
                <mxCell id="212" value="&lt;span style=&quot;color: rgb(166, 173, 187); font-family: &amp;quot;trebuchet ms&amp;quot;, verdana, arial, sans-serif; font-size: 10.2px; text-align: start; background-color: rgb(42, 48, 60);&quot;&gt;int&lt;/span&gt;" style="text;html=1;align=center;verticalAlign=middle;resizable=0;points=[];autosize=1;strokeColor=none;fillColor=none;fontSize=10;spacing=0;" vertex="1" parent="1">
                    <mxGeometry x="491.5" y="300.56" width="30" height="20" as="geometry"/>
                </mxCell>
                <mxCell id="213" value="&lt;span style=&quot;color: rgb(166, 173, 187); font-family: &amp;quot;trebuchet ms&amp;quot;, verdana, arial, sans-serif; font-size: 10.2px; text-align: start; background-color: rgb(42, 48, 60);&quot;&gt;int&lt;/span&gt;" style="text;html=1;align=center;verticalAlign=middle;resizable=0;points=[];autosize=1;strokeColor=none;fillColor=none;fontSize=10;spacing=0;" vertex="1" parent="1">
                    <mxGeometry x="491.5" y="422.28" width="30" height="20" as="geometry"/>
                </mxCell>
                <mxCell id="214" value="&lt;span style=&quot;color: rgb(166, 173, 187); font-family: &amp;quot;trebuchet ms&amp;quot;, verdana, arial, sans-serif; font-size: 10.2px; text-align: start; background-color: rgb(42, 48, 60);&quot;&gt;int&lt;/span&gt;" style="text;html=1;align=center;verticalAlign=middle;resizable=0;points=[];autosize=1;strokeColor=none;fillColor=none;fontSize=10;spacing=0;" vertex="1" parent="1">
                    <mxGeometry x="491.5" y="399.86" width="30" height="20" as="geometry"/>
                </mxCell>
                <mxCell id="215" value="&lt;span style=&quot;color: rgb(166, 173, 187); font-family: &amp;quot;trebuchet ms&amp;quot;, verdana, arial, sans-serif; font-size: 10.2px; text-align: start; background-color: rgb(42, 48, 60);&quot;&gt;int&lt;/span&gt;" style="text;html=1;align=center;verticalAlign=middle;resizable=0;points=[];autosize=1;strokeColor=none;fillColor=none;fontSize=10;spacing=0;" vertex="1" parent="1">
                    <mxGeometry x="491.5" y="373.58" width="30" height="20" as="geometry"/>
                </mxCell>
                <mxCell id="216" value="&lt;div style=&quot;text-align: start;&quot;&gt;&lt;span style=&quot;color: rgb(166, 173, 187); font-family: &amp;quot;trebuchet ms&amp;quot;, verdana, arial, sans-serif; font-size: 10.2px; background-color: rgb(42, 48, 60);&quot;&gt;PK&lt;/span&gt;&lt;br&gt;&lt;/div&gt;" style="text;html=1;align=center;verticalAlign=middle;resizable=0;points=[];autosize=1;strokeColor=none;fillColor=none;spacing=0;" vertex="1" parent="1">
                    <mxGeometry x="588" y="301.58" width="30" height="20" as="geometry"/>
                </mxCell>
                <mxCell id="217" value="&lt;span style=&quot;color: rgb(166, 173, 187); font-family: &amp;quot;trebuchet ms&amp;quot;, verdana, arial, sans-serif; font-size: 10.2px; text-align: start; background-color: rgb(42, 48, 60);&quot;&gt;project_id&lt;/span&gt;" style="text;html=1;align=center;verticalAlign=middle;resizable=0;points=[];autosize=1;strokeColor=none;fillColor=none;" vertex="1" parent="1">
                    <mxGeometry x="523" y="298" width="70" height="30" as="geometry"/>
                </mxCell>
                <mxCell id="218" value="&lt;span style=&quot;color: rgb(166, 173, 187); font-family: &amp;quot;trebuchet ms&amp;quot;, verdana, arial, sans-serif; font-size: 10.2px; text-align: start; background-color: rgb(42, 48, 60);&quot;&gt;string&lt;/span&gt;" style="text;html=1;align=center;verticalAlign=middle;resizable=0;points=[];autosize=1;strokeColor=none;fillColor=none;fontSize=10;strokeWidth=1;" vertex="1" parent="1">
                    <mxGeometry x="481.5" y="346.58" width="50" height="30" as="geometry"/>
                </mxCell>
                <mxCell id="219" value="&lt;span style=&quot;color: rgb(166, 173, 187); font-family: &amp;quot;trebuchet ms&amp;quot;, verdana, arial, sans-serif; font-size: 10.2px; text-align: start; background-color: rgb(42, 48, 60);&quot;&gt;string&lt;/span&gt;" style="text;html=1;align=center;verticalAlign=middle;resizable=0;points=[];autosize=1;strokeColor=none;fillColor=none;fontSize=10;strokeWidth=1;" vertex="1" parent="1">
                    <mxGeometry x="481.5" y="319.43999999999994" width="50" height="30" as="geometry"/>
                </mxCell>
                <mxCell id="220" value="&lt;span style=&quot;color: rgb(166, 173, 187); font-family: &amp;quot;trebuchet ms&amp;quot;, verdana, arial, sans-serif; font-size: 10.2px; text-align: start; background-color: rgb(42, 48, 60);&quot;&gt;date&lt;/span&gt;" style="text;html=1;align=center;verticalAlign=middle;resizable=0;points=[];autosize=1;strokeColor=none;fillColor=none;fontSize=10;strokeWidth=1;" vertex="1" parent="1">
                    <mxGeometry x="486.5" y="442.28" width="40" height="30" as="geometry"/>
                </mxCell>
                <mxCell id="222" value="&lt;div style=&quot;text-align: start;&quot;&gt;&lt;span style=&quot;color: rgb(166, 173, 187); font-family: &amp;quot;trebuchet ms&amp;quot;, verdana, arial, sans-serif; font-size: 10.2px; background-color: rgb(42, 48, 60);&quot;&gt;FK&lt;/span&gt;&lt;br&gt;&lt;/div&gt;" style="text;html=1;align=center;verticalAlign=middle;resizable=0;points=[];autosize=1;strokeColor=none;fillColor=none;spacing=0;" vertex="1" parent="1">
                    <mxGeometry x="588" y="373.72" width="30" height="20" as="geometry"/>
                </mxCell>
                <mxCell id="223" value="&lt;div style=&quot;text-align: start;&quot;&gt;&lt;span style=&quot;color: rgb(166, 173, 187); font-family: &amp;quot;trebuchet ms&amp;quot;, verdana, arial, sans-serif; font-size: 10.2px; background-color: rgb(42, 48, 60);&quot;&gt;FK&lt;/span&gt;&lt;br&gt;&lt;/div&gt;" style="text;html=1;align=center;verticalAlign=middle;resizable=0;points=[];autosize=1;strokeColor=none;fillColor=none;spacing=0;" vertex="1" parent="1">
                    <mxGeometry x="588" y="397.64" width="30" height="20" as="geometry"/>
                </mxCell>
                <mxCell id="224" value="&lt;div style=&quot;text-align: start;&quot;&gt;&lt;span style=&quot;color: rgb(166, 173, 187); font-family: &amp;quot;trebuchet ms&amp;quot;, verdana, arial, sans-serif; font-size: 10.2px; background-color: rgb(42, 48, 60);&quot;&gt;FK&lt;/span&gt;&lt;br&gt;&lt;/div&gt;" style="text;html=1;align=center;verticalAlign=middle;resizable=0;points=[];autosize=1;strokeColor=none;fillColor=none;spacing=0;" vertex="1" parent="1">
                    <mxGeometry x="588" y="424.14" width="30" height="20" as="geometry"/>
                </mxCell>
                <mxCell id="225" value="&lt;span style=&quot;color: rgb(166, 173, 187); font-family: &amp;quot;trebuchet ms&amp;quot;, verdana, arial, sans-serif; font-size: 10.2px; text-align: start; background-color: rgb(42, 48, 60);&quot;&gt;title&lt;/span&gt;" style="text;html=1;align=center;verticalAlign=middle;resizable=0;points=[];autosize=1;strokeColor=none;fillColor=none;" vertex="1" parent="1">
                    <mxGeometry x="533" y="321.58000000000004" width="40" height="30" as="geometry"/>
                </mxCell>
                <mxCell id="226" value="&lt;span style=&quot;color: rgb(166, 173, 187); font-family: &amp;quot;trebuchet ms&amp;quot;, verdana, arial, sans-serif; font-size: 10.2px; text-align: start; background-color: rgb(42, 48, 60);&quot;&gt;description&amp;nbsp;&lt;/span&gt;" style="text;html=1;align=center;verticalAlign=middle;resizable=0;points=[];autosize=1;strokeColor=none;fillColor=none;" vertex="1" parent="1">
                    <mxGeometry x="518" y="346.58000000000004" width="80" height="30" as="geometry"/>
                </mxCell>
                <mxCell id="227" value="&lt;span style=&quot;color: rgb(166, 173, 187); font-family: &amp;quot;trebuchet ms&amp;quot;, verdana, arial, sans-serif; font-size: 10.2px; text-align: start; background-color: rgb(42, 48, 60);&quot;&gt;category-id&lt;/span&gt;" style="text;html=1;align=center;verticalAlign=middle;resizable=0;points=[];autosize=1;strokeColor=none;fillColor=none;" vertex="1" parent="1">
                    <mxGeometry x="517" y="370.86" width="80" height="30" as="geometry"/>
                </mxCell>
                <mxCell id="228" value="&lt;span style=&quot;color: rgb(166, 173, 187); font-family: &amp;quot;trebuchet ms&amp;quot;, verdana, arial, sans-serif; font-size: 9px; text-align: start; background-color: rgb(42, 48, 60);&quot;&gt;subcategory_id&lt;/span&gt;" style="text;html=1;align=center;verticalAlign=middle;resizable=0;points=[];autosize=1;strokeColor=none;fillColor=none;fontSize=9;" vertex="1" parent="1">
                    <mxGeometry x="517" y="400.1400000000001" width="80" height="20" as="geometry"/>
                </mxCell>
                <mxCell id="229" value="&lt;span style=&quot;color: rgb(166, 173, 187); font-family: &amp;quot;trebuchet ms&amp;quot;, verdana, arial, sans-serif; font-size: 10.2px; text-align: start; background-color: rgb(42, 48, 60);&quot;&gt;user_id&lt;/span&gt;" style="text;html=1;align=center;verticalAlign=middle;resizable=0;points=[];autosize=1;strokeColor=none;fillColor=none;" vertex="1" parent="1">
                    <mxGeometry x="527" y="417.28" width="60" height="30" as="geometry"/>
                </mxCell>
                <mxCell id="230" value="&lt;span style=&quot;color: rgb(166, 173, 187); font-family: &amp;quot;trebuchet ms&amp;quot;, verdana, arial, sans-serif; font-size: 10.2px; text-align: start; background-color: rgb(42, 48, 60);&quot;&gt;created_at&lt;/span&gt;" style="text;html=1;align=center;verticalAlign=middle;resizable=0;points=[];autosize=1;strokeColor=none;fillColor=none;" vertex="1" parent="1">
                    <mxGeometry x="521.5" y="444.13999999999993" width="70" height="30" as="geometry"/>
                </mxCell>
                <mxCell id="236" value="&lt;span style=&quot;color: rgb(166, 173, 187); font-family: &amp;quot;trebuchet ms&amp;quot;, verdana, arial, sans-serif; font-size: 10.2px; text-align: start; background-color: rgb(42, 48, 60);&quot;&gt;int&lt;/span&gt;" style="text;html=1;align=center;verticalAlign=middle;resizable=0;points=[];autosize=1;strokeColor=none;fillColor=none;fontSize=10;spacing=0;" vertex="1" parent="1">
                    <mxGeometry x="299" y="314" width="30" height="20" as="geometry"/>
                </mxCell>
                <mxCell id="237" value="&lt;span style=&quot;color: rgb(166, 173, 187); font-family: &amp;quot;trebuchet ms&amp;quot;, verdana, arial, sans-serif; font-size: 10.2px; text-align: start; background-color: rgb(42, 48, 60);&quot;&gt;int&lt;/span&gt;" style="text;html=1;align=center;verticalAlign=middle;resizable=0;points=[];autosize=1;strokeColor=none;fillColor=none;fontSize=10;spacing=0;" vertex="1" parent="1">
                    <mxGeometry x="299" y="365" width="30" height="20" as="geometry"/>
                </mxCell>
                <mxCell id="238" value="&lt;span style=&quot;color: rgb(166, 173, 187); font-family: &amp;quot;trebuchet ms&amp;quot;, verdana, arial, sans-serif; font-size: 10.2px; text-align: start; background-color: rgb(42, 48, 60);&quot;&gt;string&lt;/span&gt;" style="text;html=1;align=center;verticalAlign=middle;resizable=0;points=[];autosize=1;strokeColor=none;fillColor=none;fontSize=10;strokeWidth=1;" vertex="1" parent="1">
                    <mxGeometry x="294.5" y="332.09" width="50" height="30" as="geometry"/>
                </mxCell>
                <mxCell id="239" value="&lt;div style=&quot;text-align: start;&quot;&gt;&lt;span style=&quot;color: rgb(166, 173, 187); font-family: &amp;quot;trebuchet ms&amp;quot;, verdana, arial, sans-serif; font-size: 10.2px; background-color: rgb(42, 48, 60);&quot;&gt;PK&lt;/span&gt;&lt;br&gt;&lt;/div&gt;" style="text;html=1;align=center;verticalAlign=middle;resizable=0;points=[];autosize=1;strokeColor=none;fillColor=none;spacing=0;" vertex="1" parent="1">
                    <mxGeometry x="401.5" y="312" width="30" height="20" as="geometry"/>
                </mxCell>
                <mxCell id="240" value="&lt;div style=&quot;text-align: start;&quot;&gt;&lt;span style=&quot;color: rgb(166, 173, 187); font-family: &amp;quot;trebuchet ms&amp;quot;, verdana, arial, sans-serif; font-size: 10.2px; background-color: rgb(42, 48, 60);&quot;&gt;FK&lt;/span&gt;&lt;br&gt;&lt;/div&gt;" style="text;html=1;align=center;verticalAlign=middle;resizable=0;points=[];autosize=1;strokeColor=none;fillColor=none;spacing=0;" vertex="1" parent="1">
                    <mxGeometry x="398.5" y="363.16" width="30" height="20" as="geometry"/>
                </mxCell>
                <mxCell id="241" value="&lt;span style=&quot;color: rgb(166, 173, 187); font-family: &amp;quot;trebuchet ms&amp;quot;, verdana, arial, sans-serif; font-size: 10.2px; text-align: start; background-color: rgb(42, 48, 60);&quot;&gt;user_id&lt;/span&gt;" style="text;html=1;align=center;verticalAlign=middle;resizable=0;points=[];autosize=1;strokeColor=none;fillColor=none;" vertex="1" parent="1">
                    <mxGeometry x="339.5" y="358.58" width="60" height="30" as="geometry"/>
                </mxCell>
                <mxCell id="242" value="&lt;span style=&quot;color: rgb(166, 173, 187); font-family: &amp;quot;trebuchet ms&amp;quot;, verdana, arial, sans-serif; font-size: 10.2px; text-align: start; background-color: rgb(42, 48, 60);&quot;&gt;comment&lt;/span&gt;" style="text;html=1;align=center;verticalAlign=middle;resizable=0;points=[];autosize=1;strokeColor=none;fillColor=none;fontSize=10;strokeWidth=1;" vertex="1" parent="1">
                    <mxGeometry x="334.5" y="335" width="70" height="30" as="geometry"/>
                </mxCell>
                <mxCell id="243" value="&lt;span style=&quot;color: rgb(166, 173, 187); font-family: &amp;quot;trebuchet ms&amp;quot;, verdana, arial, sans-serif; font-size: 10.2px; text-align: start; background-color: rgb(42, 48, 60);&quot;&gt;review_id&lt;/span&gt;" style="text;html=1;align=center;verticalAlign=middle;resizable=0;points=[];autosize=1;strokeColor=none;fillColor=none;fontSize=10;strokeWidth=1;" vertex="1" parent="1">
                    <mxGeometry x="334.5" y="307" width="70" height="30" as="geometry"/>
                </mxCell>
                <mxCell id="245" value="&lt;span style=&quot;color: rgb(166, 173, 187); font-family: &amp;quot;trebuchet ms&amp;quot;, verdana, arial, sans-serif; font-size: 10.2px; text-align: start; background-color: rgb(42, 48, 60);&quot;&gt;Reviews&lt;/span&gt;" style="text;html=1;align=center;verticalAlign=middle;resizable=0;points=[];autosize=1;strokeColor=none;fillColor=none;spacing=0;" vertex="1" parent="1">
                    <mxGeometry x="335" y="290" width="60" height="20" as="geometry"/>
                </mxCell>
                <mxCell id="246" value="&lt;span style=&quot;color: rgb(166, 173, 187); font-family: &amp;quot;trebuchet ms&amp;quot;, verdana, arial, sans-serif; font-size: 10.2px; text-align: start; background-color: rgb(42, 48, 60);&quot;&gt;Categories&lt;/span&gt;" style="text;html=1;align=center;verticalAlign=middle;resizable=0;points=[];autosize=1;strokeColor=none;fillColor=none;spacing=0;" vertex="1" parent="1">
                    <mxGeometry x="705.5" y="182.85999999999996" width="70" height="20" as="geometry"/>
                </mxCell>
                <mxCell id="247" value="&lt;span style=&quot;color: rgb(166, 173, 187); font-family: &amp;quot;trebuchet ms&amp;quot;, verdana, arial, sans-serif; font-size: 10.2px; text-align: start; background-color: rgb(42, 48, 60);&quot;&gt;int&lt;/span&gt;" style="text;html=1;align=center;verticalAlign=middle;resizable=0;points=[];autosize=1;strokeColor=none;fillColor=none;fontSize=10;spacing=0;" vertex="1" parent="1">
                    <mxGeometry x="673" y="209.3" width="30" height="20" as="geometry"/>
                </mxCell>
                <mxCell id="248" value="&lt;span style=&quot;color: rgb(166, 173, 187); font-family: &amp;quot;trebuchet ms&amp;quot;, verdana, arial, sans-serif; font-size: 10.2px; text-align: start; background-color: rgb(42, 48, 60);&quot;&gt;string&lt;/span&gt;" style="text;html=1;align=center;verticalAlign=middle;resizable=0;points=[];autosize=1;strokeColor=none;fillColor=none;fontSize=10;strokeWidth=1;" vertex="1" parent="1">
                    <mxGeometry x="670" y="230.01999999999992" width="50" height="30" as="geometry"/>
                </mxCell>
                <mxCell id="249" value="&lt;div style=&quot;text-align: start;&quot;&gt;&lt;span style=&quot;color: rgb(166, 173, 187); font-family: &amp;quot;trebuchet ms&amp;quot;, verdana, arial, sans-serif; font-size: 10.2px; background-color: rgb(42, 48, 60);&quot;&gt;PK&lt;/span&gt;&lt;br&gt;&lt;/div&gt;" style="text;html=1;align=center;verticalAlign=middle;resizable=0;points=[];autosize=1;strokeColor=none;fillColor=none;spacing=0;" vertex="1" parent="1">
                    <mxGeometry x="777" y="209.29999999999998" width="30" height="20" as="geometry"/>
                </mxCell>
                <mxCell id="250" value="&lt;span style=&quot;color: rgb(166, 173, 187); font-family: &amp;quot;trebuchet ms&amp;quot;, verdana, arial, sans-serif; font-size: 10.2px; text-align: start; background-color: rgb(42, 48, 60);&quot;&gt;category-id&lt;/span&gt;" style="text;html=1;align=center;verticalAlign=middle;resizable=0;points=[];autosize=1;strokeColor=none;fillColor=none;" vertex="1" parent="1">
                    <mxGeometry x="703" y="202.88000000000002" width="80" height="30" as="geometry"/>
                </mxCell>
                <mxCell id="251" value="&lt;span style=&quot;color: rgb(166, 173, 187); font-family: &amp;quot;trebuchet ms&amp;quot;, verdana, arial, sans-serif; font-size: 9px; text-align: start; background-color: rgb(42, 48, 60);&quot;&gt;category_name&lt;/span&gt;" style="text;html=1;align=center;verticalAlign=middle;resizable=0;points=[];autosize=1;strokeColor=none;fillColor=none;fontSize=9;" vertex="1" parent="1">
                    <mxGeometry x="698" y="235.02" width="90" height="20" as="geometry"/>
                </mxCell>
                <mxCell id="252" value="&lt;span style=&quot;color: rgb(166, 173, 187); font-family: &amp;quot;trebuchet ms&amp;quot;, verdana, arial, sans-serif; font-size: 10.2px; text-align: start; background-color: rgb(42, 48, 60);&quot;&gt;SubCategories&lt;/span&gt;" style="text;html=1;align=center;verticalAlign=middle;resizable=0;points=[];autosize=1;strokeColor=none;fillColor=none;spacing=0;" vertex="1" parent="1">
                    <mxGeometry x="750" y="349.43999999999994" width="80" height="20" as="geometry"/>
                </mxCell>
                <mxCell id="253" value="&lt;span style=&quot;color: rgb(166, 173, 187); font-family: &amp;quot;trebuchet ms&amp;quot;, verdana, arial, sans-serif; font-size: 9px; text-align: start; background-color: rgb(42, 48, 60);&quot;&gt;subcategory_id&lt;/span&gt;" style="text;html=1;align=center;verticalAlign=middle;resizable=0;points=[];autosize=1;strokeColor=none;fillColor=none;fontSize=9;" vertex="1" parent="1">
                    <mxGeometry x="744" y="374.5600000000001" width="80" height="20" as="geometry"/>
                </mxCell>
                <mxCell id="254" value="&lt;span style=&quot;color: rgb(166, 173, 187); font-family: &amp;quot;trebuchet ms&amp;quot;, verdana, arial, sans-serif; font-size: 10.2px; text-align: start; background-color: rgb(42, 48, 60);&quot;&gt;string&lt;/span&gt;" style="text;html=1;align=center;verticalAlign=middle;resizable=0;points=[];autosize=1;strokeColor=none;fillColor=none;fontSize=10;strokeWidth=1;" vertex="1" parent="1">
                    <mxGeometry x="708" y="393.13999999999993" width="50" height="30" as="geometry"/>
                </mxCell>
                <mxCell id="255" value="&lt;span style=&quot;color: rgb(166, 173, 187); font-family: &amp;quot;trebuchet ms&amp;quot;, verdana, arial, sans-serif; font-size: 10.2px; text-align: start; background-color: rgb(42, 48, 60);&quot;&gt;int&lt;/span&gt;" style="text;html=1;align=center;verticalAlign=middle;resizable=0;points=[];autosize=1;strokeColor=none;fillColor=none;fontSize=10;spacing=0;" vertex="1" parent="1">
                    <mxGeometry x="718" y="374.14" width="30" height="20" as="geometry"/>
                </mxCell>
                <mxCell id="256" value="&lt;div style=&quot;text-align: start;&quot;&gt;&lt;span style=&quot;color: rgb(166, 173, 187); font-family: &amp;quot;trebuchet ms&amp;quot;, verdana, arial, sans-serif; font-size: 10.2px; background-color: rgb(42, 48, 60);&quot;&gt;PK&lt;/span&gt;&lt;br&gt;&lt;/div&gt;" style="text;html=1;align=center;verticalAlign=middle;resizable=0;points=[];autosize=1;strokeColor=none;fillColor=none;spacing=0;" vertex="1" parent="1">
                    <mxGeometry x="816" y="376" width="30" height="20" as="geometry"/>
                </mxCell>
                <mxCell id="257" value="&lt;div style=&quot;text-align: start;&quot;&gt;&lt;span style=&quot;color: rgb(166, 173, 187); font-family: &amp;quot;trebuchet ms&amp;quot;, verdana, arial, sans-serif; font-size: 10.2px; background-color: rgb(42, 48, 60);&quot;&gt;FK&lt;/span&gt;&lt;br&gt;&lt;/div&gt;" style="text;html=1;align=center;verticalAlign=middle;resizable=0;points=[];autosize=1;strokeColor=none;fillColor=none;spacing=0;" vertex="1" parent="1">
                    <mxGeometry x="817.5" y="424" width="30" height="20" as="geometry"/>
                </mxCell>
                <mxCell id="258" value="&lt;span style=&quot;color: rgb(166, 173, 187); font-family: &amp;quot;trebuchet ms&amp;quot;, verdana, arial, sans-serif; font-size: 10.2px; text-align: start; background-color: rgb(42, 48, 60);&quot;&gt;int&lt;/span&gt;" style="text;html=1;align=center;verticalAlign=middle;resizable=0;points=[];autosize=1;strokeColor=none;fillColor=none;fontSize=10;spacing=0;" vertex="1" parent="1">
                    <mxGeometry x="716" y="421.71999999999997" width="30" height="20" as="geometry"/>
                </mxCell>
                <mxCell id="259" value="&lt;span style=&quot;color: rgb(166, 173, 187); font-family: &amp;quot;trebuchet ms&amp;quot;, verdana, arial, sans-serif; font-size: 10.2px; text-align: start; background-color: rgb(42, 48, 60);&quot;&gt;category-id&lt;/span&gt;" style="text;html=1;align=center;verticalAlign=middle;resizable=0;points=[];autosize=1;strokeColor=none;fillColor=none;" vertex="1" parent="1">
                    <mxGeometry x="744" y="417.64" width="80" height="30" as="geometry"/>
                </mxCell>
                <mxCell id="260" value="&lt;span style=&quot;color: rgb(166, 173, 187); font-family: &amp;quot;trebuchet ms&amp;quot;, verdana, arial, sans-serif; font-size: 10.2px; text-align: start; background-color: rgb(42, 48, 60);&quot;&gt;subcategoryName&lt;/span&gt;" style="text;html=1;align=center;verticalAlign=middle;resizable=0;points=[];autosize=1;strokeColor=none;fillColor=none;" vertex="1" parent="1">
                    <mxGeometry x="746" y="394" width="100" height="30" as="geometry"/>
                </mxCell>
            </root>
        </mxGraphModel>
    </diagram>
</mxfile>